<?xml version="1.0" encoding="utf-8"?>
<!-- Generator: Adobe Illustrator 24.0.0, SVG Export Plug-In . SVG Version: 6.00 Build 0)  -->
<svg version="1.1"
	 id="svg8" inkscape:version="0.92.2 (5c3e80d, 2017-08-06)" sodipodi:docname="block.svg" xmlns:cc="http://creativecommons.org/ns#" xmlns:dc="http://purl.org/dc/elements/1.1/" xmlns:inkscape="http://www.inkscape.org/namespaces/inkscape" xmlns:rdf="http://www.w3.org/1999/02/22-rdf-syntax-ns#" xmlns:sodipodi="http://sodipodi.sourceforge.net/DTD/sodipodi-0.dtd" xmlns:svg="http://www.w3.org/2000/svg"
	 xmlns="http://www.w3.org/2000/svg" xmlns:xlink="http://www.w3.org/1999/xlink" x="0px" y="0px" viewBox="0 0 400 400"
	 style="enable-background:new 0 0 400 400;" xml:space="preserve">
<style type="text/css">
	.st0{fill:none;stroke:#000000;stroke-width:30;stroke-linecap:round;stroke-linejoin:round;stroke-miterlimit:10;}
	.st1{fill:none;stroke:#000000;stroke-width:20;stroke-linecap:round;stroke-linejoin:round;stroke-miterlimit:10;}
	.st2{fill:none;stroke:#000000;stroke-width:30;stroke-linejoin:round;stroke-miterlimit:10;}
	.st3{fill:none;stroke:#000000;stroke-width:30;stroke-miterlimit:10;}
	.st4{fill:none;stroke:#000000;stroke-width:20;stroke-linejoin:round;stroke-miterlimit:10;}
</style>
<path class="st0" d="M-2194.4,395.8c-78.8-166,97.6-289.6,211.9-189.4c101.1,115.3-34.6,248.6-128.2,170
	c-72.1-63,3.6-170.2,73.7-117.8c51.8,55.5-35.2,91.5-30.3,49.2"/>
<rect x="-1113.7" y="-208.7" class="st0" width="156.8" height="156.8"/>
<g>
	<rect x="1211.1" y="623" class="st0" width="122.4" height="111.9"/>
	<polygon class="st0" points="1426.9,784.9 1333.5,734.9 1333.5,623 1426.9,573 	"/>
	<path class="st1" d="M1465.6,740.8c15-16.3,24.1-38,24.1-61.9c0-23.9-9.1-45.6-24.1-61.9"/>
	<path class="st1" d="M1503.9,769c20.7-24.2,33.2-55.7,33.2-90.1c0-34.4-12.5-65.8-33.2-90.1"/>
</g>
<g>
	<circle class="st1" cx="1189.1" cy="277.2" r="69.1"/>
	<circle class="st1" cx="1105.9" cy="143.5" r="36.5"/>
	<circle class="st1" cx="1248.4" cy="143.5" r="17.2"/>
	<circle class="st1" cx="1327.1" cy="79.5" r="25.7"/>
	<circle class="st1" cx="1323.4" cy="204.4" r="3.7"/>
</g>
<g>
	<g>
		<path class="st2" d="M55.4,777.1l49.5-28.6l48.5-28L42.5,608.9c-11.1-11.1-28.3-13.3-41.8-5.2l-73.9,44.3l-112.9,67.6l0.1,0.1
			l48.6,47.7l61.7,60.6c0.4,0.4,0.8,0.7,1.2,1.1c11,9.8,27,11.4,39.8,4l46.7-27"/>
		<path class="st2" d="M12.1,802.2l-46.7,27c-12.8,7.4-29,5.7-39.9-4.1c-0.1,0-0.1-0.1-0.2-0.1c-0.3-0.3-0.7-0.6-1-0.9l-61.7-60.6
			l-48.6-47.7v76.8l110.2,108.3c11,10.8,27.8,12.9,41.1,5.2l47-27.2"/>
		<polyline class="st2" points="55.4,853.9 153.4,797.3 153.4,720.5 105,748.6 55.4,777.2 		"/>
		<line class="st1" x1="7.4" y1="653.1" x2="66" y2="712"/>
		<line class="st1" x1="-12" y1="667" x2="46.6" y2="725.9"/>
		<line class="st1" x1="-104.7" y1="732.4" x2="-62.9" y2="774.4"/>
	</g>
	<polyline class="st1" points="-116.1,673.9 12.4,802.4 12.4,933.4 33.5,896.3 55.4,914.9 55.4,776.5 -74.1,647 	"/>
</g>
<g>
	<path class="st3" d="M-446.1-462.3c0.6-32,7.2-57.2,25.8-78c20.3-22.8,50.1-27.9,76.4-12.5c18.8,11,36.7,11.1,55.5,0.1
		c28.3-16.5,60.2-9.5,80.7,17.2c17.6,23,23.8,49.8,21.1,78c-4.3,44.7-21,84.6-49.9,119.2c-7,8.4-15.3,15.3-25.6,19.5
		c-9.6,3.9-19,3.9-28.1-1.1c-17.2-9.5-34.3-9.5-51.5-0.1c-10.1,5.6-20.4,5.1-30.6,0.2c-10.6-5.1-19.2-12.9-26.3-22
		C-427.4-378.7-443.3-420.4-446.1-462.3z"/>
	<path class="st4" d="M-320-544.8c-9-41.2-25.8-75.6-50.7-90.1l35.3-19.1c26.5,18.6,31.5,60.9,32.7,107.4"/>
</g>
<g>
	<path class="st0" d="M1005.9-319.5"/>
	<path class="st0" d="M1189.1-311.4"/>
	<g>
		<path class="st0" d="M1136.5-226.8c0,48,0,95.5,0,143.5c-1.2,0.1-2.4,0.3-3.6,0.3c-13.1,0-26.3-0.1-39.4,0.1
			c-3.2,0-4.2-0.9-4.2-4.1c0.2-13.1,0.1-26.3,0.1-39.4c0-1.4,0-2.8,0-4.4c-32.5,0-64.5,0-96.9,0c-0.1,1.4-0.2,2.8-0.2,4.1
			c0,13.3-0.1,26.6,0.1,39.8c0,2.9-0.7,4.1-3.8,4c-13.4-0.2-26.8-0.1-40.2,0c-2.3,0-3.5-0.5-3.5-3.2c0.1-46.1,0.1-92.3,0.1-138.4
			c0-0.5,0.1-1,0.3-2c1.5-0.1,3-0.2,4.4-0.2c12.9,0,25.8-0.2,38.7,0.1c4.1,0.1,4.9-1.2,4.9-5c-0.2-12.8-0.1-25.5-0.1-38.3
			c0-1.4,0-2.8,0-4.7c1.6-0.1,3-0.3,4.3-0.3c29,0,58,0,87-0.1c3.4,0,4.4,0.8,4.4,4.3c-0.2,13.3,0,26.6-0.1,39.8
			c0,3.2,0.9,4.2,4.2,4.2c13-0.2,26-0.1,39.1-0.1C1133.3-226.8,1134.8-226.8,1136.5-226.8z"/>
		<path class="st0" d="M1089.4-323.5c0-14.6,0.1-29.1-0.1-43.7c0-3,0.6-4.3,4-4.3c29.2,0.1,58.5,0.1,87.7,0c2.9,0,4,0.8,4,3.9
			c-0.1,29.4-0.1,58.7,0,88.1c0,3.2-1.1,3.9-4,3.9c-29.2-0.1-58.5-0.1-87.7,0c-3.4,0-4-1.2-4-4.3
			C1089.4-294.4,1089.4-309,1089.4-323.5z"/>
		<path class="st0" d="M992.2-371.2c0,1.7,0,3.1,0,4.4c0,28.9-0.1,57.7,0.1,86.6c0,3.5-0.9,4.5-4.5,4.5c-28.9-0.1-57.7-0.1-86.6,0
			c-3.5,0-4.6-0.8-4.6-4.5c0.1-29,0.1-58,0-87c0-3.4,1-4.4,4.4-4.3c29,0.1,58,0.1,87,0.1C989.3-371.4,990.5-371.3,992.2-371.2z"/>
	</g>
</g>
<g>
	<g>
		<path d="M-878.9,520.8c-1.2,0.5-2.3,0.8-3.3,1c-0.3,0.1-0.7,0.2-1,0.3l-1,0.3h-13l-0.9-0.2c-10.1-2.6-18.4-8.9-24.4-18.7
			c-5.3-8.7-6.1-18.4-2.4-29.1c5-14.1,12-26.6,17.6-36l0.4-0.7c1.2-2,2.6-4.3,4.3-6.5c1.5-1.8,3.5-3.4,6.1-4.8
			c4.9-2.6,10.5-1.9,14.7,2c1.9,1.7,3.2,3.3,4.3,5c9.1,13.8,15.8,27,20.6,40.5C-848.8,495.8-861.9,514.1-878.9,520.8z"/>
	</g>
	<g>
		<path d="M-586.2,304.9c-1.8-14.3-8.5-23.8-20-28.2c-0.1,0-0.2-0.1-0.2-0.1l-7.4-3.3c-6.3-2.8-12.8-5.7-19.4-8.5
			c1-5.2,1.4-11,1.4-17.7v-0.2l-0.1-3.2c-0.1-2.6-0.2-5.1-0.4-7.7c-0.1-1.3-0.2-2.9-0.5-4.7c-4.7-25.4-18.5-43.5-41.1-53.7
			c-20.3-9.2-41.2-7.9-55.1-6.2c-15.2,1.9-30.2,6.9-45.9,15.4c-4.3,2.3-8.5,4.9-12.5,7.4c-0.9,0.6-1.8,1.1-2.7,1.7
			c-2.7-1.2-5.3-2.3-7.7-3.3c-7.4-3.1-15.2-2.7-22.4,1.1c-3.1,1.6-6.3,3.7-9.5,6.3c-7.9,6.4-15,14.4-22.3,25.2
			c-25.3,37.9-43.7,79.3-54.8,123.2c-3.6,14.4-5,26.6-4.2,38.2c0.3,4.3,0.9,10,3.4,15.5c2.3,5,5.8,8.5,10.5,10.5
			c2.3,1,4.6,2.1,7,3.2c1.9,0.9,3.9,1.9,6,2.8l19.2,8.5c43,19,87.5,38.6,131.3,57.8c7.7,3.4,15.5,6.6,23.1,9.7
			c3.9,1.6,7.7,3.2,11.5,4.8c2.7,1.1,5.5,1.7,8.5,1.7c1.9,0,3.8-0.2,5.8-0.7c9.1-2.1,16-7.1,21-11.3c10.2-8.5,19.5-19.1,29.2-33.6
			c20.1-30.1,35-63.8,44.2-100.4C-585.5,336.7-584.2,320.3-586.2,304.9z M-730.4,200.5c14.3-3,25.9-2.9,36.7,0.4
			c18,5.5,28.6,17.1,32.6,35.6c1,4.9,1.3,10.2,0.9,16.2l-97-42.4C-748,205.5-739.1,202.3-730.4,200.5z M-873.7,370.4
			c-2.7,3.6-5.7,7-8.8,10.4c0.5-9.2,2.2-18.5,5.3-29.7c9.9-36.1,24.6-69.9,43.7-100.6c6.2-10,12.6-18.4,19.7-25.9
			c-0.3,5.6-1.3,11.1-2.3,16.4c-5,25.6-14.5,49.6-23.2,69.6C-848.8,332.5-860.4,352.6-873.7,370.4z M-622.8,362.8
			c-10,31.4-23.8,59.9-40.8,84.7c-6.2,9-12.6,16.1-19.5,21.5c-1.3,1-3,1.9-4.6,2.8c-0.2,0.1-0.3,0.1-0.8-0.1c-4.8-2-9.6-4-14.3-6
			c-6.8-2.8-13.8-5.8-20.7-8.8c-35.2-15.3-71-31-105.6-46.2l-29.6-13c0.6-0.7,1.3-1.4,2-2.1c8.4-9.2,16.2-20.3,24.5-34.7
			c18.6-32.2,32.6-65.8,41.8-99.9c2.8-10.3,4.6-20.7,5.4-31c1.3,0.5,2.5,1.1,3.7,1.6c37.5,16.5,74.9,32.9,112.4,49.4
			c-1.2,2.5-2.4,4.8-3.7,6.9c-9.5,15.5-22.6,28-39.9,38.2c-12.8,7.5-25.2,12.1-38.2,14c-4,0.6-8,0.9-12.3,1.3h0
			c-0.5-1.2-1.1-2.4-1.8-3.5c-4.6-8.6-13.7-14.5-24.2-14.5c-15.1,0-27.4,12.3-27.4,27.4c0,15.1,12.3,27.4,27.4,27.4
			c7.2,0,13.8-2.8,18.7-7.4c0.3,0,0.5-0.1,0.9-0.1c1.7-0.1,3.4-0.2,5.1-0.3c5.4-0.3,11-0.5,16.6-1.3c13.4-1.9,26.7-6.1,40.7-12.9
			c24.1-11.6,43.1-28.4,56.8-49.8c2.7-4.2,4.9-8.5,7.1-12.8c0.2-0.4,0.5-0.9,0.7-1.3c0.8,0.3,1.5,0.7,2.3,1
			c3.4,1.6,6.8,3.1,10.2,4.7c4.7,2.2,9.6,4.5,14.5,6.6c0,0,0.1,0,0.1,0l0,0.1c0.6,4.1,1.2,7.9,1.1,11.5
			C-614.6,330.7-617.3,345.8-622.8,362.8z"/>
	</g>
</g>
<path class="st2" d="M332.4,197L305,226.4L200,339.2L95,226.4L67.6,197c-29-31.2-29-81.7,0-112.8c14.5-15.6,33.5-23.4,52.5-23.4
	c19,0,38,7.8,52.5,23.4l27.4,29.4l27.4-29.4c14.5-15.6,33.5-23.4,52.5-23.4c19,0,38,7.8,52.5,23.4
	C361.4,115.3,361.4,165.8,332.4,197z"/>
</svg>
