<svg width="400" height="400" viewBox="0 0 400 400" fill="none" xmlns="http://www.w3.org/2000/svg">
<path d="M117.595 138.035C112.297 130.875 105.406 122.587 103.114 115.764C100.822 108.941 100.217 101.664 101.353 94.556C102.488 87.4482 105.329 80.7214 109.632 74.9516C113.935 69.1819 119.573 64.541 126.062 61.4265C132.551 58.312 139.699 56.8166 146.892 57.0683C154.086 57.3201 161.111 59.3116 167.366 62.8722C173.622 66.4327 178.921 71.4564 182.811 77.5129C186.7 83.5695 189.064 90.4784 189.699 97.6482" stroke="black" stroke-width="25"/>
<path d="M304.892 140.321C309.743 138.306 313.983 135.054 317.186 130.89C320.39 126.726 322.447 121.795 323.151 116.589C323.856 111.383 323.184 106.083 321.202 101.217C319.22 96.3514 315.998 92.09 311.856 88.8575C307.715 85.625 302.798 83.5343 297.597 82.7938C292.395 82.0532 287.091 82.6886 282.212 84.6366C277.332 86.5847 273.049 89.7774 269.788 93.8966C266.526 98.0158 266.291 102.567 263.625 108.114C251.13 134.109 231.369 136.42 222.613 135.818C213.857 135.217 192.942 126.607 189.363 94.6268" stroke="black" stroke-width="25"/>
<path d="M97.2662 268.741C92.8503 272.008 87.6967 274.136 82.262 274.937C76.8272 275.737 71.279 275.184 66.1087 273.328C60.9385 271.472 56.3059 268.369 52.6212 264.294C48.9365 260.22 46.3136 255.3 44.9846 249.97C43.6556 244.64 43.6617 239.064 45.0023 233.737C46.3429 228.409 48.9766 223.495 52.6702 219.429C56.3637 215.362 61.0031 212.27 66.1774 210.425C71.3516 208.58 77.2811 208.037 82.3341 208.851C95.7294 211.008 131.399 205.491 141.099 188.518C151.361 170.563 131.505 156.833 116.272 136.246" stroke="black" stroke-width="25"/>
<path d="M96.8181 269.072C148.75 227.874 170.043 245.362 178.197 254.565C191.17 269.206 185.813 299.488 184.416 308.833C183.299 316.308 181.015 329.819 180.012 335.64C179.588 338.477 180.113 341.817 180.973 344.554C181.833 347.291 183.304 349.797 185.274 351.882C187.245 353.967 189.664 355.577 192.348 356.59C195.032 357.603 197.912 357.993 200.769 357.73C203.625 357.466 206.385 356.557 208.839 355.071C211.293 353.584 213.377 351.56 214.933 349.149C216.49 346.739 217.478 344.007 217.823 341.159C219.27 325.983 228.794 299.543 245.12 288.848C257.036 281.041 285.797 272.498 304.82 286.227" stroke="black" stroke-width="25"/>
<path d="M302.673 284.651C307.898 288.357 313.935 290.757 320.279 291.65C326.622 292.542 333.087 291.902 339.131 289.781C345.176 287.661 350.625 284.123 355.021 279.464C359.416 274.805 362.632 269.16 364.397 263.002C366.162 256.844 366.426 250.353 365.166 244.073C363.907 237.792 361.16 231.905 357.157 226.904C353.153 221.903 348.01 217.935 342.157 215.331C336.304 212.727 329.463 211.893 323.518 211.939C309.553 212.048 273.578 219.558 264.223 192.988C254.163 164.417 291.138 146.06 306.435 139.59" stroke="black" stroke-width="25"/>
</svg>
