<svg width="400" height="400" viewBox="0 0 400 400" fill="none" xmlns="http://www.w3.org/2000/svg">
<path d="M271.7 222.4L321.2 193.8L369.7 165.8L258.9 54.2C247.8 43.1 230.6 40.9 217.1 49L143.2 93.3L30.3 160.9L30.4 161L79 208.7L140.7 269.3C141.1 269.7 141.5 270 141.9 270.4C152.9 280.2 168.9 281.8 181.7 274.4L228.4 247.4" stroke="black" stroke-width="30" stroke-miterlimit="10" stroke-linejoin="round"/>
<path d="M228.4 247.5L181.7 274.5C168.9 281.9 152.8 280.2 141.8 270.4C141.7 270.4 141.7 270.3 141.7 270.3C141.4 270 141 269.7 140.7 269.4L79 208.8L30.4 161V237.8L140.6 346.1C151.6 356.9 168.4 359 181.7 351.3L228.7 324.1" stroke="black" stroke-width="30" stroke-miterlimit="10" stroke-linejoin="round"/>
<path d="M271.7 299.2L369.8 242.6V165.8L321.4 193.9L271.7 222.5" stroke="black" stroke-width="30" stroke-miterlimit="10" stroke-linejoin="round"/>
<path d="M223.7 98.4L282.3 157.3" stroke="black" stroke-width="20" stroke-miterlimit="10" stroke-linecap="round" stroke-linejoin="round"/>
<path d="M204.3 112.3L262.9 171.2" stroke="black" stroke-width="20" stroke-miterlimit="10" stroke-linecap="round" stroke-linejoin="round"/>
<path d="M111.6 177.7L153.4 219.7" stroke="black" stroke-width="20" stroke-miterlimit="10" stroke-linecap="round" stroke-linejoin="round"/>
<path d="M100.2 119.2L228.7 247.7V378.7L249.8 341.6L271.7 360.2V221.9L142.2 92.3" stroke="black" stroke-width="20" stroke-miterlimit="10" stroke-linecap="round" stroke-linejoin="round"/>
</svg>
