<svg width="400" height="400" viewBox="0 0 400 400" fill="none" xmlns="http://www.w3.org/2000/svg">
<path class="fill" d="M125.557 94.2851C126.317 94.0953 133.921 94.0002 148.368 94L171.178 94.2851C177.071 95.4259 180.683 98.8475 182.014 104.55C182.203 105.501 182.298 106.546 182.299 107.686C182.298 113.579 179.637 117.761 174.315 120.232C173.364 120.613 172.319 120.898 171.178 121.088C170.418 121.278 163.194 121.373 149.508 121.373H128.693V147.891C128.693 166.9 128.408 177.83 127.838 180.681C126.507 186.954 123.846 192.562 119.854 197.504L118.428 199.215L119.569 200.926C122.42 204.537 124.701 208.529 126.412 212.901C127.172 214.992 127.838 217.559 128.408 220.6L128.693 222.596V250.254V277.627H149.508C163.194 277.627 170.418 277.722 171.178 277.912C177.071 279.053 180.683 282.474 182.014 288.177C182.203 289.128 182.298 290.173 182.299 291.314C182.298 297.396 179.542 301.578 174.03 303.859L171.178 304.715L148.368 305C133.16 305 124.416 304.715 122.135 304.145C113.201 301.864 107.023 296.446 103.601 287.892C103.031 286.941 102.651 285.896 102.461 284.755C101.89 282.664 101.605 272.019 101.605 252.82C101.415 233.241 100.94 222.596 100.18 220.885C98.2787 217.274 95.3324 214.802 91.3405 213.472C90.5801 213.282 85.0675 213.187 74.8027 213.186C64.3477 212.996 58.74 212.806 57.9797 212.616C51.7067 210.715 48.3801 206.343 48 199.5C48 193.037 51.3265 188.665 57.9797 186.384C58.74 186.004 64.3477 185.814 74.8027 185.814C85.6378 185.814 91.9107 185.338 93.6216 184.388C97.4233 182.677 99.8945 179.731 101.035 175.549C101.225 174.788 101.415 164.999 101.605 146.18V117.951L101.891 116.241C103.411 109.588 106.738 104.17 111.87 99.9878C115.672 96.7565 120.234 94.8556 125.557 94.2851Z" fill="black"/>
<path class="fill" d="M273.942 94.2851C273.182 94.0953 265.578 94.0002 251.131 94L228.32 94.2851C222.428 95.4259 218.816 98.8475 217.485 104.55C217.295 105.501 217.2 106.546 217.2 107.686C217.2 113.579 219.861 117.761 225.184 120.232C226.134 120.613 227.18 120.898 228.32 121.088C229.081 121.278 236.304 121.373 249.99 121.373H270.805V147.891C270.805 166.9 271.091 177.83 271.661 180.681C272.991 186.954 275.653 192.562 279.645 197.504L281.07 199.215L279.93 200.926C277.078 204.537 274.797 208.529 273.086 212.901C272.326 214.992 271.661 217.559 271.09 220.6L270.805 222.596V250.254V277.627H249.99C236.304 277.627 229.081 277.722 228.32 277.912C222.428 279.053 218.816 282.474 217.485 288.177C217.295 289.128 217.2 290.173 217.2 291.314C217.2 297.396 219.956 301.578 225.469 303.859L228.32 304.715L251.131 305C266.338 305 275.082 304.715 277.363 304.145C286.298 301.864 292.476 296.446 295.897 287.892C296.468 286.941 296.848 285.896 297.038 284.755C297.608 282.664 297.893 272.019 297.893 252.82C298.083 233.241 298.559 222.596 299.319 220.885C301.22 217.274 304.166 214.802 308.158 213.472C308.918 213.282 314.431 213.187 324.696 213.186C335.151 212.996 340.759 212.806 341.519 212.616C347.792 210.715 351.118 206.343 351.499 199.5C351.499 193.037 348.172 188.665 341.519 186.384C340.759 186.004 335.151 185.814 324.696 185.814C313.861 185.814 307.588 185.338 305.877 184.388C302.075 182.677 299.604 179.731 298.463 175.549C298.273 174.788 298.083 164.999 297.893 146.18V117.951L297.608 116.241C296.087 109.588 292.761 104.17 287.628 99.9878C283.827 96.7565 279.264 94.8556 273.942 94.2851Z" fill="black"/>
</svg>
