<svg width="400" height="400" viewBox="0 0 400 400" fill="none" xmlns="http://www.w3.org/2000/svg">
<path class="fill" d="M200.54 46.1234C248.463 46.1234 281.065 76.9315 281.065 119.965C281.378 133.379 278.077 146.631 271.511 158.331C264.943 170.032 255.35 179.752 243.736 186.471C220.589 201.468 214.069 211.411 214.069 230.646V241.73C214.069 241.73 213.965 262.223 193.507 262.223C173.049 262.223 173.155 241.73 173.155 241.73V228.527C173.155 209.129 173.976 203.363 179.792 192.197C185.608 181.03 194.657 171.877 205.756 165.933C227.599 151.262 234.934 140.993 234.934 121.758C235.021 117.236 234.209 112.741 232.548 108.533C230.887 104.326 228.408 100.49 225.256 97.246C222.103 94.0023 218.339 91.4156 214.18 89.6355C210.022 87.8554 205.552 86.9171 201.029 86.8748H198.258C193.334 86.7006 188.423 87.4986 183.808 89.2234C179.192 90.9483 174.962 93.5659 171.359 96.9268C167.756 100.288 164.851 104.326 162.809 108.811C160.768 113.295 159.631 118.137 159.462 123.062V125.833C159.462 125.833 159.462 146.721 139.017 146.721C118.571 146.721 118.059 125.833 118.059 125.833C117.264 105.522 124.558 85.7234 138.339 70.7808C152.119 55.8383 171.265 46.971 191.574 46.1234C194.561 45.9589 197.553 45.9589 200.54 46.1234Z" fill="black"/>
<path class="fill" d="M228.903 321.37C228.903 339.375 214.307 353.971 196.302 353.971C178.296 353.971 163.7 339.375 163.7 321.37C163.7 303.365 178.296 288.769 196.302 288.769C214.307 288.769 228.903 303.365 228.903 321.37Z" fill="black"/>
</svg>
