<?xml version="1.0" encoding="utf-8"?>
<!-- Generator: Adobe Illustrator 24.0.0, SVG Export Plug-In . SVG Version: 6.00 Build 0)  -->
<svg version="1.1"
	 id="svg8" inkscape:version="0.92.2 (5c3e80d, 2017-08-06)" sodipodi:docname="block.svg" xmlns:cc="http://creativecommons.org/ns#" xmlns:dc="http://purl.org/dc/elements/1.1/" xmlns:inkscape="http://www.inkscape.org/namespaces/inkscape" xmlns:rdf="http://www.w3.org/1999/02/22-rdf-syntax-ns#" xmlns:sodipodi="http://sodipodi.sourceforge.net/DTD/sodipodi-0.dtd" xmlns:svg="http://www.w3.org/2000/svg"
	 xmlns="http://www.w3.org/2000/svg" xmlns:xlink="http://www.w3.org/1999/xlink" x="0px" y="0px" viewBox="0 0 400 400"
	 style="enable-background:new 0 0 400 400;" xml:space="preserve">
<style type="text/css">
	.st0{fill:none;stroke:#000000;stroke-width:30;stroke-linecap:round;stroke-linejoin:round;stroke-miterlimit:10;}
	.st1{fill:none;stroke:#000000;stroke-width:20;stroke-linecap:round;stroke-linejoin:round;stroke-miterlimit:10;}
</style>
<path class="st0" d="M-2194.4,395.8c-78.8-166,97.6-289.6,211.9-189.4c101.1,115.3-34.6,248.6-128.2,170
	c-72.1-63,3.6-170.2,73.7-117.8c51.8,55.5-35.2,91.5-30.3,49.2"/>
<rect x="-1113.7" y="-208.7" class="st0" width="156.8" height="156.8"/>
<g>
	<rect x="1211.1" y="623" class="st0" width="122.4" height="111.9"/>
	<polygon class="st0" points="1426.9,784.9 1333.5,734.9 1333.5,623 1426.9,573 	"/>
	<path class="st1" d="M1465.6,740.8c15-16.3,24.1-38,24.1-61.9c0-23.9-9.1-45.6-24.1-61.9"/>
	<path class="st1" d="M1503.9,769c20.7-24.2,33.2-55.7,33.2-90.1c0-34.4-12.5-65.8-33.2-90.1"/>
</g>
<circle class="st1" cx="176" cy="282.4" r="69.1"/>
<circle class="st1" cx="92.7" cy="148.7" r="36.5"/>
<circle class="st1" cx="235.2" cy="148.7" r="17.2"/>
<circle class="st1" cx="314" cy="84.7" r="25.7"/>
<circle class="st1" cx="310.3" cy="209.6" r="3.7"/>
</svg>
