<svg width="400" height="400" viewBox="0 0 400 400" fill="none" xmlns="http://www.w3.org/2000/svg">
<path d="M176 351.5C214.163 351.5 245.1 320.563 245.1 282.4C245.1 244.237 214.163 213.3 176 213.3C137.837 213.3 106.9 244.237 106.9 282.4C106.9 320.563 137.837 351.5 176 351.5Z" stroke="black" stroke-width="20" stroke-miterlimit="10" stroke-linecap="round" stroke-linejoin="round"/>
<path d="M92.7 185.2C112.858 185.2 129.2 168.858 129.2 148.7C129.2 128.542 112.858 112.2 92.7 112.2C72.5416 112.2 56.2 128.542 56.2 148.7C56.2 168.858 72.5416 185.2 92.7 185.2Z" stroke="black" stroke-width="20" stroke-miterlimit="10" stroke-linecap="round" stroke-linejoin="round"/>
<path d="M235.2 165.9C244.699 165.9 252.4 158.199 252.4 148.7C252.4 139.201 244.699 131.5 235.2 131.5C225.701 131.5 218 139.201 218 148.7C218 158.199 225.701 165.9 235.2 165.9Z" stroke="black" stroke-width="20" stroke-miterlimit="10" stroke-linecap="round" stroke-linejoin="round"/>
<path d="M314 110.4C328.194 110.4 339.7 98.8937 339.7 84.7C339.7 70.5063 328.194 59 314 59C299.806 59 288.3 70.5063 288.3 84.7C288.3 98.8937 299.806 110.4 314 110.4Z" stroke="black" stroke-width="20" stroke-miterlimit="10" stroke-linecap="round" stroke-linejoin="round"/>
<path d="M310.3 213.3C312.343 213.3 314 211.643 314 209.6C314 207.557 312.343 205.9 310.3 205.9C308.257 205.9 306.6 207.557 306.6 209.6C306.6 211.643 308.257 213.3 310.3 213.3Z" stroke="black" stroke-width="20" stroke-miterlimit="10" stroke-linecap="round" stroke-linejoin="round"/>
</svg>
