<svg width="400" height="400" viewBox="0 0 400 400" fill="none" xmlns="http://www.w3.org/2000/svg">
<path d="M369.7 166.3L321.2 194.3L181.6 274.9C168.3 282.6 151.5 280.5 140.5 269.7L78.8 209.1L30.2 161.4L217 49.5C230.5 41.4 247.7 43.6 258.8 54.7L369.7 166.3Z" stroke="black" stroke-width="30" stroke-miterlimit="10" stroke-linejoin="round"/>
<path d="M369.7 166.3V243.1L181.6 351.8C168.3 359.5 151.5 357.4 140.5 346.6L30.3 238.3V161.5L78.9 209.2L140.6 269.8C151.6 280.6 168.4 282.7 181.7 275L321.3 194.4L369.7 166.3Z" stroke="black" stroke-width="30" stroke-miterlimit="10" stroke-linejoin="round"/>
<path d="M223.7 98.9L282.3 157.8" stroke="black" stroke-width="20" stroke-miterlimit="10" stroke-linecap="round" stroke-linejoin="round"/>
<path d="M204.3 112.8L262.9 171.7" stroke="black" stroke-width="20" stroke-miterlimit="10" stroke-linecap="round" stroke-linejoin="round"/>
<path d="M111.6 178.2L153.4 220.2" stroke="black" stroke-width="20" stroke-miterlimit="10" stroke-linecap="round" stroke-linejoin="round"/>
</svg>
