<svg width="400" height="400" viewBox="0 0 400 400" fill="none" xmlns="http://www.w3.org/2000/svg">
<path class="fill" d="M200 64.5833C125.417 64.5833 64.5833 125.417 64.5833 200C64.5833 274.583 125.417 335.417 200 335.417C218 335.5 226.5 333 230 332C230 332 252 325 245 306.5C238 288 216 295 216 295C210 296.5 208 296 200 296.25C146.667 296.25 103.333 252.917 103.333 199.583C103.333 146.25 146.667 102.917 200 102.917C253.333 102.917 296.667 146.667 296.667 200V210C296.667 218.333 295 232.083 282.5 232.083H277.5C273.75 232.083 266.25 224.583 265.833 220.833V200C265.833 163.75 236.25 134.167 200 134.167C163.75 134.167 134.167 163.75 134.167 200C134.167 236.25 163.75 265.833 200 265.833C215 265.833 228.75 260.417 240 252.083C249.583 263.333 263.333 271.25 277.5 271.25H282.5C313.75 271.25 335.417 246.25 335.417 210.417V200C335.417 125.417 274.583 64.5833 200 64.5833ZM200 227.083C185 227.083 172.917 215 172.917 200C172.917 185 185 172.917 200 172.917C215 172.917 227.083 185 227.083 200C227.083 215 215 227.083 200 227.083Z" fill="black"/>
</svg>
