<svg width="400" height="400" viewBox="0 0 400 400" fill="none" xmlns="http://www.w3.org/2000/svg">
<path class="fill" d="M174.6 313.2C170.1 313.2 165.5 312.1 160.9 309.9C153.5 306.4 147 301 141.1 293.5C122.4 269.5 111.4 241.7 109.5 213.2V212.8V212.4C109.9 188.4 115.6 171.5 127.9 157.6C135.6 149 145.2 143.5 155.8 141.8C166.5 140 177.4 142.2 187.3 148C196.2 153.2 203.7 153.2 212.5 148C234.2 135.3 259.3 140.6 275 161.1C287 176.8 292.1 195.4 290 216.4C287.1 246.1 275.9 272.9 256.7 295.9C251 302.7 244.4 307.7 237.1 310.7C228.3 314.3 219.4 313.9 211.5 309.5C203.6 305.1 196.3 305.1 188.4 309.5C184.1 312 179.4 313.2 174.6 313.2ZM128.3 212.4C130.1 237 139.6 261.1 155.9 282C159.9 287.2 164.2 290.8 169 293.1C173 295 176.2 295.1 179.6 293.2C193 285.8 207.3 285.8 220.7 293.3C223.7 294.9 226.6 295 230.2 293.6C234.7 291.8 238.7 288.6 242.5 284.1C259.2 264 269 240.7 271.5 214.8C273.1 198.7 269.3 184.5 260.2 172.7C250.2 159.6 235.6 156.4 222 164.3C207.4 172.8 192.6 172.8 177.9 164.3C165.5 157 151.7 159.3 141.9 170.2C132.8 180.4 128.7 193.1 128.3 212.4Z" fill="black"/>
<path class="fill" d="M191.5 162.5C185.8 136.3 175.6 117.8 162.8 110.4C160.8 109.3 159.7 107.2 159.7 104.9C159.7 102.6 161 100.6 163 99.5L185.1 87.6C187.2 86.5 189.7 86.6 191.6 88C200.5 94.2 206.6 104.2 210.2 118.5C213.6 131.9 214.3 147.7 214.7 159.9L202.2 160.2L191.5 162.5ZM177.5 105.8C190.2 117.5 197.6 136 201.9 152.4C201 130.8 198 110.7 187.3 100.5L177.5 105.8Z" fill="black"/>
<path d="M355.9 43.9H43.7V356.1H355.9V43.9Z" stroke="black" stroke-width="30" stroke-miterlimit="10" stroke-linejoin="round"/>
</svg>
